<svg version="1.1" id="Ebene_1" xmlns="http://www.w3.org/2000/svg" xmlns:xlink="http://www.w3.org/1999/xlink" x="0px" y="0px" viewBox="-249.785 431.5 96 22" xml:space="preserve"><g><path fill="currentColor" d="M-236.66,453.159h4.019v-16.155h-4.019v1.295c-1.361-0.947-3.005-1.486-4.782-1.486&#10;                            c-4.616,0-8.343,3.728-8.343,8.344c0,4.648,3.728,8.343,8.343,8.343c1.769,0,3.412-0.54,4.773-1.485v1.146H-236.66z&#10;                             M-245.866,445.156c0-2.564,2.051-4.616,4.616-4.616c2.564,0,4.615,2.05,4.615,4.616c0,2.564-2.05,4.616-4.615,4.616&#10;                            C-243.816,449.772-245.866,447.721-245.866,445.156 M-217.881,431.5v6.799c-1.361-0.945-3.005-1.485-4.773-1.485&#10;                            c-4.616,0-8.343,3.728-8.343,8.344c0.008,4.649,3.735,8.343,8.352,8.343c1.77,0,3.412-0.539,4.774-1.486v1.138h4.018V431.5&#10;                            H-217.881z M-227.079,445.156c0-2.564,2.051-4.616,4.615-4.616c2.565,0,4.616,2.05,4.616,4.616c0,2.564-2.051,4.616-4.616,4.616&#10;                            C-225.028,449.772-227.079,447.721-227.079,445.156 M-207.885,431.5h-4.018v4.018h4.018V431.5z M-207.885,437.004h-4.018v16.156&#10;                            h4.018V437.004z M-193.124,431.5v6.799c-1.354-0.945-3.006-1.485-4.774-1.485c-4.616,0-8.343,3.728-8.343,8.344&#10;                            c0,4.649,3.728,8.343,8.343,8.343c1.769,0,3.42-0.539,4.774-1.486v1.138h4.018V431.5H-193.124z M-202.323,445.156&#10;                            c0-2.564,2.051-4.616,4.616-4.616c2.564,0,4.615,2.05,4.615,4.616c0,2.564-2.051,4.616-4.615,4.616&#10;                            C-200.264,449.78-202.323,447.721-202.323,445.156 M-174.338,453.159h4.019v-16.155h-4.019v1.295&#10;                            c-1.36-0.947-3.005-1.486-4.772-1.486c-4.616,0-8.344,3.728-8.344,8.344c0,4.648,3.728,8.343,8.344,8.343&#10;                            c1.768,0,3.412-0.54,4.772-1.485V453.159z M-183.544,445.156c0-2.564,2.051-4.616,4.615-4.616c2.565,0,4.616,2.05,4.616,4.616&#10;                            c0,2.564-2.051,4.616-4.616,4.616C-181.485,449.78-183.544,447.721-183.544,445.156 M-168.833,447.913&#10;                            c0.125,3.255,2.914,5.57,7.555,5.57c3.794,0,6.923-1.644,6.923-5.28c0-2.523-1.419-4.018-4.707-4.648l-2.564-0.506&#10;                            c-1.645-0.315-2.781-0.631-2.781-1.61c0-1.071,1.111-1.544,2.499-1.544c2.025,0,2.848,1.013,2.914,2.217h4.051&#10;                            c-0.216-3.163-2.748-5.28-6.832-5.28c-4.201,0-6.708,2.308-6.708,5.313c0,3.669,2.972,4.267,5.529,4.74l2.116,0.381&#10;                            c1.52,0.283,2.185,0.731,2.185,1.611c0,0.789-0.764,1.586-2.565,1.586c-2.624,0-3.479-1.361-3.512-2.523h-4.101L-168.833,447.913&#10;                            L-168.833,447.913z"/></g></svg>